<svg version="1.0" xmlns="http://www.w3.org/2000/svg" xmlns:xlink="http://www.w3.org/1999/xlink" width="221.4540624537614" height="168" viewBox="0 0 221.4540624537614 168" class="css-1j8o68f"><defs id="SvgjsDefs3345"></defs><g id="SvgjsG3346" featurekey="monogramFeature-0" transform="matrix(2.5996531733055837,0,0,2.5996531733055837,53.521672949567325,-45.2339691822731)" fill="#0c4dc4"><path d="M32.94 18 l6.48 0 l0 42.6 l-0.72 0 l-27.42 -27.54 l0 26.94 l-6.48 0 l0 -42.6 l0.72 0 l27.42 27.54 l0 -26.94 z"></path></g><g id="SvgjsG3347" featurekey="nameLeftFeature-0" transform="matrix(1,0,0,1,0,150)" fill="#111111"><path d=""></path></g><g id="SvgjsG3348" featurekey="inlineSymbolFeature-0" transform="matrix(0.437849665112084,0,0,0.437849665112084,-1.794498336231551,128.10751632682982)" fill="#0b3788"><g xmlns="http://www.w3.org/2000/svg"><path d="M77.568,22.086l-0.009-0.013c-0.031-0.046-0.063-0.091-0.096-0.137C71.911,14.133,60.962,8.89,50.219,8.89   c-0.051,0-0.102,0.001-0.152,0.002l-0.067,0.001l-0.066-0.001c-0.051-0.001-0.102-0.002-0.153-0.002   c-10.742,0-21.691,5.243-27.245,13.047c-0.032,0.046-0.063,0.091-0.096,0.137l-0.009,0.013c-1.144,1.319-12.372,15.73-3.568,63.236   c0.002,0.014,0.006,0.025,0.009,0.039c0.002,0.01,0.004,0.021,0.006,0.031l0.008,0.039c0.674,3.557,3.371,5.678,7.215,5.678   c1.812,0,3.309-0.617,4.45-1.838c2.388-2.549,2.231-6.895,2.203-7.41c-0.113-11.285-0.174-23.396-0.174-24.582   c0-16.44,5.536-24.371,17.421-24.951c11.885,0.58,17.421,8.511,17.421,24.951c0,1.186-0.061,13.297-0.174,24.582   c-0.027,0.516-0.185,4.861,2.203,7.41c1.142,1.221,2.639,1.838,4.45,1.838c3.845,0,6.542-2.121,7.216-5.678l0.007-0.039   c0.003-0.01,0.004-0.021,0.007-0.031c0.002-0.014,0.006-0.025,0.009-0.039C89.943,37.802,78.717,23.408,77.568,22.086z    M73.899,88.311c-1.018,0-1.803-0.311-2.401-0.947c-1.375-1.463-1.517-4.369-1.455-5.365c0.001-0.014,0-0.025,0.001-0.039   c0-0.012,0.002-0.025,0.002-0.037c0.113-11.305,0.175-23.453,0.175-24.643c0-8.406-1.396-14.71-4.267-19.273   c-3.326-5.287-8.667-8.139-15.874-8.478c-0.002,0-0.004,0-0.006,0c-0.003-0.001-0.007-0.001-0.01-0.001   c-0.018-0.001-0.035,0-0.053,0c-0.025,0-0.052-0.001-0.077,0c-7.215,0.335-12.561,3.188-15.89,8.479   c-2.871,4.562-4.267,10.867-4.267,19.273c0,1.189,0.061,13.338,0.175,24.643c0,0.014,0.002,0.027,0.002,0.039   c0.001,0.014,0,0.025,0.001,0.039c0.002,0.035,0.188,3.607-1.451,5.359c-0.599,0.641-1.386,0.951-2.406,0.951   c-2.534,0-4.036-1.145-4.464-3.4c-0.009-0.043-0.016-0.08-0.023-0.113c-4.577-24.709-3.521-39.968-1.83-48.417   c1.824-9.113,4.754-12.448,4.777-12.474h-0.001c0.043-0.047,0.083-0.096,0.121-0.148l0.138-0.197   c5.052-7.101,15.084-11.87,24.963-11.87c0.031,0,0.062,0.001,0.093,0.001l0.116,0.002c0.003,0.001,0.007,0.001,0.011,0.001l0,0l0,0   H50l0,0c0.004,0,0.007,0,0.011-0.001l0.115-0.002c0.031,0,0.062-0.001,0.093-0.001c9.879,0,19.911,4.77,24.964,11.869l0.138,0.198   c0.004,0.006,0.008,0.01,0.012,0.015c0.023,0.032,0.049,0.064,0.075,0.095c0.01,0.012,0.019,0.023,0.029,0.034   c0.002,0.002,0.003,0.004,0.005,0.006c0.118,0.128,11.76,13.312,2.945,60.89c-0.007,0.033-0.015,0.07-0.022,0.113   C77.937,87.166,76.435,88.311,73.899,88.311z"></path><path d="M30.516,28.046c0.741,0,1.438-0.289,1.964-0.813c0.909-0.909,1.051-2.297,0.433-3.359   c3.354-3.894,8.868-6.602,14.583-7.196c-0.76,1.083-0.659,2.589,0.308,3.556c0.524,0.524,1.222,0.813,1.963,0.813   s1.438-0.289,1.964-0.813c0.98-0.981,1.069-2.518,0.272-3.604c5.743,0.472,11.344,3.1,14.82,6.943   c-0.843,1.088-0.768,2.662,0.23,3.66c0.524,0.524,1.222,0.813,1.963,0.813s1.438-0.289,1.964-0.813   c1.082-1.083,1.082-2.844,0-3.926c-0.375-0.374-0.837-0.626-1.341-0.74c-4.263-5.307-11.941-8.814-19.479-8.814   c-0.041,0-0.082,0-0.122,0.002h-0.038h-0.037c-0.041-0.002-0.081-0.002-0.122-0.002c-7.507,0-15.151,3.478-19.426,8.746   c-0.703,0.025-1.361,0.309-1.861,0.809c-1.082,1.082-1.082,2.844,0,3.926C29.077,27.757,29.774,28.046,30.516,28.046z"></path><path d="M75.47,75.002c0.034-4.852,0.06-9.107,0.074-11.998c0.154,0.025,0.312,0.043,0.472,0.043c0.741,0,1.438-0.289,1.964-0.814   c1.082-1.082,1.082-2.844,0-3.926c-0.524-0.523-1.222-0.812-1.963-0.812c-0.16,0-0.317,0.016-0.472,0.041   c-0.079-4.475-0.484-8.46-1.224-11.992c0.72-0.014,1.396-0.299,1.908-0.811c1.082-1.083,1.082-2.844,0-3.926   c-0.524-0.524-1.222-0.813-1.963-0.813c-0.495,0-0.968,0.131-1.385,0.372c-0.752-2.109-1.662-4.014-2.737-5.723   c-4.2-6.676-10.956-10.275-20.08-10.699c-0.026-0.001-0.052,0-0.078,0c-0.018,0-0.034-0.001-0.052,0c-0.004,0-0.007,0-0.01,0.001   c-0.003,0-0.005,0-0.008,0c-9.115,0.428-15.865,4.026-20.062,10.698c-1.119,1.777-2.061,3.768-2.829,5.979   c-0.495-0.407-1.11-0.629-1.759-0.629c-0.742,0-1.439,0.289-1.964,0.813c-1.082,1.082-1.082,2.844,0,3.926   c0.524,0.524,1.222,0.813,1.963,0.813c0.143,0,0.281-0.014,0.419-0.034c-0.751,3.57-1.159,7.607-1.232,12.146   c-0.297-0.105-0.611-0.164-0.936-0.164c-0.742,0-1.439,0.289-1.964,0.812c-1.082,1.082-1.082,2.844,0,3.926   c0.524,0.525,1.222,0.814,1.963,0.814c0.325,0,0.641-0.059,0.938-0.166c0.015,2.891,0.04,7.195,0.074,12.115   c-0.728,0.01-1.41,0.295-1.926,0.811c-1.082,1.082-1.082,2.844,0,3.926c0.524,0.525,1.222,0.814,1.963,0.814   c0.742,0,1.439-0.289,1.964-0.814c0.564-0.564,0.832-1.314,0.807-2.057c0.007-0.057,0.012-0.115,0.011-0.174   c-0.07-9.502-0.108-17.34-0.108-18.328c0-10.172,1.631-17.708,4.985-23.04c3.726-5.921,9.541-8.992,17.775-9.39   c8.235,0.397,14.05,3.469,17.775,9.39c3.354,5.331,4.985,12.867,4.985,23.04c0,0.971-0.036,8.543-0.104,17.805   c-0.279,0.945-0.047,2.01,0.697,2.754c0.524,0.525,1.222,0.814,1.963,0.814c0.742,0,1.439-0.289,1.964-0.814   c1.082-1.082,1.082-2.844,0-3.926C76.791,75.318,76.153,75.039,75.47,75.002z"></path></g></g><g id="SvgjsG3349" featurekey="nameRightFeature-0" transform="matrix(1.2412080400093382,0,0,1.2412080400093382,35.46673602320068,117.86682559045668)" fill="#0c4dc4"><path d="M3.6523 40 l0 -28.223 l5.8594 0 l0 28.223 l-5.8594 0 z M29.29653125 40.39063 c-8.3008 0 -14.434 -5.6445 -14.434 -14.512 s6.1328 -14.492 14.434 -14.492 c6.2891 0 11.328 3.2227 13.34 8.5742 l-5.4688 1.9922 c-1.25 -3.2813 -4.2383 -5.1758 -7.8711 -5.1758 c-4.8633 0 -8.5938 3.3984 -8.5938 9.1016 s3.7305 9.1211 8.5938 9.1211 c3.6328 0 6.6211 -1.9141 7.8711 -5.1953 l5.4688 1.9922 c-2.0117 5.3516 -7.0508 8.5938 -13.34 8.5938 z M63.809062499999996 16.934 l-10.469 0 l0 6.4063 l9.2773 0 l0 5.0977 l-9.2773 0 l0 6.3867 l10.469 0 l0 5.1758 l-16.367 0 l0 -28.223 l16.367 0 l0 5.1563 z M81.58240625 11.777000000000001 c5.5273 0 8.9648 4.1016 8.9648 9.1211 c0 5.1367 -3.4375 8.9844 -8.9648 8.9844 l-5.8789 0 l0 10.117 l-5.8594 0 l0 -28.223 l11.738 0 z M80.60540625 24.98 c2.9297 0 4.2969 -1.6211 4.2969 -4.1602 c0 -2.4414 -1.3672 -4.1406 -4.2969 -4.1406 l-4.9023 0 l0 8.3008 l4.9023 0 z M112.16840625 40 l-8.7695 -11.992 l-2.0703 0 l0 11.992 l-5.8594 0 l0 -28.223 l5.8594 0 l0 11.094 l1.9922 0 l8.8477 -11.094 l7.1484 0 l-10.938 13.496 l11.27 14.727 l-7.4805 0 z M136.0543125 40.39063 c-8.1445 0 -14.141 -5.625 -14.141 -14.434 c0 -8.9258 6.1328 -14.57 14.434 -14.57 c5.4492 0 9.9609 2.4023 12.422 6.6406 l-5.1367 2.7344 c-1.4844 -2.8906 -4.1406 -4.2773 -7.2852 -4.2773 c-4.8828 0 -8.5547 3.3594 -8.5547 9.3359 c0 5.7617 3.4375 9.4727 8.7695 9.4727 c3.6133 0 6.9336 -1.7969 7.7344 -5.918 l-7.7148 0 l0 -4.707 l13.262 0 l0 15.332 l-4.6094 0 l0 -3.9063 c-1.8164 2.6758 -4.8633 4.2969 -9.1797 4.2969 z"></path></g></svg>
