<svg version="1.0" xmlns="http://www.w3.org/2000/svg" xmlns:xlink="http://www.w3.org/1999/xlink" viewBox="0 0 200 50" preserveAspectRatio="xMidYMid meet" color-interpolation-filters="sRGB"> <g fill="#333" class="iconlinesvg-g iconlinesvg" > <g> <g transform="translate(0, 0)"> <g> <g> <g> <rect fill="#333" fill-opacity="0" stroke-width="2" x="0" y="0" width="58.787393426772525" height="46.92779984894671" ></rect> <svg x="0" y="0" width="58.787393426772525" height="46.92779984894671" filtersec="colorsb5500935807" style="overflow: visible" > <svg xmlns="http://www.w3.org/2000/svg" viewBox="0.0032072067260742188 -0.023705730214715004 130.88385009765625 104.47969818115234" > <path d="M79.34 99.73c-9.67 7.92-25 5.64-32.94-5C36.16 80.88 26 67 15.86 53.08 12.07 47.92 8.22 42.8 4.51 37.59-5.5 23.52 2 4 18.77.55a22.45 22.45 0 0 1 19.06 4.34C37.7 6 36.75 6.53 36.07 7.22c-7.71 7.75-9.13 20.09-3 29 5.83 8.45 12 16.69 18.06 25 5.77 7.88 11.63 15.7 17.41 23.58 3.66 4.96 7.21 9.96 10.8 14.93z" fill="#0c4dc4" ></path> <path d="M79.34 99.73c-3.59-5-7.14-10-10.76-14.91-5.78-7.88-11.64-15.7-17.41-23.58C45.1 53 38.94 44.71 33.11 36.26c-6.17-8.95-4.75-21.29 3-29 .68-.69 1.63-1.21 1.76-2.33h.94c2 2.8 4.28 5.42 6.3 8.23 7 9.75 14.13 19.39 21.25 29.05 6 8.12 12.07 16.18 18 24.35a23.21 23.21 0 0 1 4.56 12.92c.18 3.89-.84 7.51-1.58 11.22-2.25 3.4-4.42 6.84-8 9.03z" fill="#1479e3" ></path> <path d="M87.29 90.69c.71-3.69 1.76-7.33 1.58-11.22a23.21 23.21 0 0 0-4.56-12.92c-5.92-8.17-12-16.23-18-24.35-7.11-9.66-14.25-19.3-21.24-29.05-2-2.81-4.28-5.43-6.3-8.23C48.37-3 63.78-1.14 71.49 9c4.83 6.35 9.51 12.86 14.23 19.26.56.75.85 1.88 2.07 2 1.35 3.74 4.28 6.38 6.52 9.51 1 2.19 2.69 3.92 4.11 5.83 7.32 9.86 7.33 20.5-.09 30.37-3.69 4.87-7.07 10.03-11.04 14.72z" fill="#1fa8f8" ></path> <path d="M94.31 39.73c-2.24-3.13-5.17-5.77-6.52-9.51a40.4 40.4 0 0 1-1.13-8.85 22.13 22.13 0 0 1 44.22 0c.19 8.77-3.46 15.57-10.95 19.93-7.69 4.47-15.56 4.06-23.22-.47-.71-.41-1.4-1.15-2.4-1.1z" fill="#1fa8f8" ></path> </svg> </svg> </g> </g> </g> </g> <g transform="translate(62, 3.08446295996907)"> <g data-gra="path-name" fill="#333" transform="scale(1)"> <path d="M20.82-39.11L5.12-39.11C3.36-39.11 2.75-38.50 2.75-36.79L2.75-2.31C2.75-0.61 3.36 0 5.12 0L11.35 0C13.11 0 13.66-0.61 13.66-2.31L13.66-13.00L14.93-13.00C17.18-13.00 18.12-12.06 19.06-10.19L22.58-2.64C23.46-0.72 24.73 0 27.65 0L33.60 0C35.42 0 35.80-1.21 35.03-2.70L30.07-12.12C29.63-13.00 29.14-13.77 28.59-14.49C32.33-16.58 34.53-20.43 34.53-25.83C34.53-34.37 29.14-39.11 20.82-39.11ZM23.24-25.89C23.24-23.63 21.92-22.20 19.61-22.20L13.66-22.20L13.66-29.47L19.61-29.47C21.98-29.47 23.24-28.09 23.24-25.89Z" transform="translate(-2.7539779681762546, 39.932680538555694)" ></path> </g> </g> <g transform="translate(98, 3.08446295996907)"> <g data-gra="path-name" fill="#333" transform="scale(1)"> <path d="M31.62-28.53C31.62-35.42 26.82-39.93 18.01-39.93C9.03-39.93 4.08-36.46 1.76-30.29C1.21-28.70 1.60-27.87 3.25-27.32L8.65-25.39C10.30-24.84 11.02-25.17 11.62-26.88C12.61-29.36 13.71-30.46 16.80-30.46C19.33-30.46 20.54-29.52 20.54-27.43C20.54-25.23 18.89-24.40 16.80-24.40L14.38-24.40C12.61-24.40 12.06-23.79 12.06-22.03L12.06-17.46C12.06-15.75 12.61-15.15 14.38-15.15L17.74-15.15C20.10-15.15 21.37-14.27 21.37-11.90C21.37-9.69 19.94-8.65 17.07-8.65C13.99-8.65 12.39-9.86 11.51-12.23C10.85-13.94 10.19-14.32 8.54-13.71L3.14-11.79C1.49-11.24 1.05-10.41 1.65-8.81C3.91-2.64 8.98 0.83 17.90 0.83C27.98 0.83 32.77-3.64 32.77-11.24C32.77-15.20 31.06-18.51 27.32-20.49C30.07-22.31 31.62-25.06 31.62-28.53Z" transform="translate(-1.3931860824478837, 39.932680538555694)" ></path> </g> </g> <g transform="translate(133, 3.08446295996907)"> <g data-gra="path-name" fill="#333" transform="scale(1)"> <path d="M13.00-24.40L13.00-25.17C13.00-28.75 14.65-30.29 18.29-30.29C21.26-30.29 22.86-29.47 23.74-27.71C24.62-26.11 25.12-25.56 26.77-26.16L32.00-28.20C33.65-28.81 34.09-29.52 33.49-31.18C31.18-37.12 26.27-39.93 18.12-39.93C7.71-39.93 2.15-34.59 2.15-25.12L2.15-13.99C2.15-4.52 7.66 0.83 18.12 0.83C28.09 0.83 34.09-3.75 34.09-12.12C34.09-20.71 29.30-24.84 18.73-24.84C16.19-24.84 14.38-24.68 13.00-24.40ZM13.00-12.78L13.00-14.87C13.94-15.20 15.59-15.53 18.12-15.53C21.98-15.53 23.24-14.38 23.24-12.06C23.24-9.80 21.98-8.48 18.12-8.48C14.38-8.48 13.00-10.08 13.00-12.78Z" transform="translate(-2.148102815177479, 39.932680538555694)" ></path> </g> </g> <g transform="translate(168, 3.08446295996907)"> <g data-gra="path-name" fill="#333" transform="scale(1)"> <path d="M2.15-25.61L2.15-13.55C2.15-4.68 7.88 0.83 17.85 0.83C27.82 0.83 33.54-4.68 33.54-13.55L33.54-25.61C33.54-34.37 27.82-39.93 17.85-39.93C7.88-39.93 2.15-34.37 2.15-25.61ZM22.64-26.05L22.64-13.11C22.64-10.35 20.82-8.81 17.85-8.81C14.87-8.81 13.05-10.35 13.05-13.11L13.05-26.05C13.05-28.75 14.87-30.29 17.85-30.29C20.82-30.29 22.64-28.75 22.64-26.05Z" transform="translate(-2.1481028151774786, 39.932680538555694)" ></path> </g> </g> </g> </g></svg>
